<svg xmlns="http://www.w3.org/2000/svg" viewBox="0 0 400 400" role="img" aria-label="traveler two">
  <defs>
    <linearGradient id="bg2" x1="0" y1="0" x2="1" y2="1">
      <stop offset="0" stop-color="#eff6fb"/>
      <stop offset="1" stop-color="#d7e9f2"/>
    </linearGradient>
  </defs>
  <circle cx="200" cy="200" r="196" fill="url(#bg2)"/>
  <!-- sea-blue shirt -->
  <rect x="132" y="252" width="136" height="128" rx="46" fill="#4f9aa0"/>
  <path d="M200 258 L176 300 L200 288 L224 300 Z" fill="#f2fbfc"/>
  <!-- ears -->
  <circle cx="134" cy="186" r="11" fill="#ffe0c9"/>
  <circle cx="266" cy="186" r="11" fill="#ffe0c9"/>
  <!-- head -->
  <circle cx="200" cy="176" r="66" fill="#ffe0c9"/>
  <!-- hair: navy bun + fringe arc -->
  <circle cx="200" cy="92" r="26" fill="#3a4a5a"/>
  <path d="M138 178 a64 64 0 0 1 124 -4" fill="none" stroke="#3a4a5a" stroke-width="30" stroke-linecap="round"/>
  <path d="M138 180 q14 -16 34 -12 q28 -8 40 4 q14 -4 26 8" fill="#3a4a5a"/>
  <!-- face -->
  <circle cx="180" cy="190" r="5.5" fill="#4a3a2e"/>
  <circle cx="220" cy="190" r="5.5" fill="#4a3a2e"/>
  <path d="M186 208 q14 13 28 0" fill="none" stroke="#4a3a2e" stroke-width="4" stroke-linecap="round"/>
  <circle cx="169" cy="205" r="9" fill="#f2a88c" opacity="0.6"/>
  <circle cx="231" cy="205" r="9" fill="#f2a88c" opacity="0.6"/>
</svg>
